<?xml version="1.0" encoding="utf-8"?>
<!-- Generator: Adobe Illustrator 26.3.1, SVG Export Plug-In . SVG Version: 6.00 Build 0)  -->
<svg version="1.1" id="Layer_1" xmlns="http://www.w3.org/2000/svg" xmlns:xlink="http://www.w3.org/1999/xlink" x="0px" y="0px"
	 viewBox="0 0 785.3 337" style="enable-background:new 0 0 785.3 337;" xml:space="preserve">
<style type="text/css">
	.st0{fill:#E6E7E8;}
	.st1{fill:#262626;}
	.st2{fill:#c42f27;}
</style>
<g>
	<g>
		<g>
			<g>
				<g>
					<g>
						<path class="st0" d="M186.2,308.2H46c-19.7,0-35.7-16-35.7-35.7V64.4c0-19.7,16-35.7,35.7-35.7h140.2
							c19.7,0,35.7,16,35.7,35.7v208.2C221.9,292.3,205.9,308.2,186.2,308.2z"/>
					</g>
				</g>
				<g>
					<g>
						<path class="st1" d="M186.2,316.8H46c-24.4,0-44.3-19.9-44.3-44.3V64.4C1.7,40,21.6,20.1,46,20.1h140.2
							c24.4,0,44.3,19.9,44.3,44.3v208.2C230.5,297,210.6,316.8,186.2,316.8z M46,37.3c-14.9,0-27,12.1-27,27v208.2
							c0,14.9,12.1,27,27,27h140.2c14.9,0,27-12.1,27-27V64.4c0-14.9-12.1-27-27-27H46V37.3z"/>
					</g>
				</g>
			</g>
			<g>
				<g>
					<path class="st2" d="M57.9,109.3c-8.8,0-16-7.2-16-16v-7.5h-3.2l2-7.5h14l-2,7.5h-2.4c0,0-0.1,1,0,6.8c0,4.2,3.5,7.7,7.7,7.7
						c2.7,0,5.2-1.4,6.6-3.7c1.1-1.8,1.1-3.8,1.1-5.6V75.5V57.2h-7.2l2-7.5h23.9l-2,7.5h-5.8v33.9c0,2.4-0.1,4.4-0.4,5.9
						c-1.6,8.4-9.4,12.3-15.9,12.3h-1.6l0,0c-0.2,0-0.4,0-0.5,0C57.9,109.3,57.9,109.3,57.9,109.3z"/>
				</g>
			</g>
			<g>
				<g>
					<g>
						<path class="st2" d="M178.7,189.1c6.9-7.3,10.9-17.6,10.3-28.8c-1-19.3-16.1-34.8-34.5-35.8s-33.9,12.3-37.6,30.1
							c-3.6-17.8-19.2-31-37.5-30.1s-33.3,16.2-34.5,35.3c-0.7,10.2,2.5,19.6,8.1,26.7l53.3,78.3c5.3,7.2,15.7,7.2,20.9,0
							L178.7,189.1z"/>
					</g>
				</g>
			</g>
		</g>
		<g>
			<g>
				<g>
					<path class="st0" d="M223.8,329.2l-131.4-49c-18.5-6.9-27.8-27.4-21-45.9l72.7-195.1c6.9-18.5,27.4-27.8,45.9-21l131.4,49
						c18.5,6.9,27.8,27.4,21,45.9l-72.7,195.1C262.8,326.7,242.2,336.1,223.8,329.2z"/>
				</g>
			</g>
			<g>
				<g>
					<path class="st1" d="M238.3,334.8c-5.3,0-10.5-0.9-15.5-2.8L91.4,283c-11.1-4.1-19.9-12.3-24.8-23.1
						c-4.9-10.8-5.3-22.8-1.2-33.9l72.7-195.1c6.4-17.2,23.1-28.8,41.5-28.8c5.3,0,10.5,0.9,15.5,2.8l131.4,49
						c11.1,4.1,19.9,12.3,24.8,23.1s5.3,22.8,1.2,33.9L279.8,306C273.4,323.2,256.7,334.8,238.3,334.8z M179.7,19.4
						c-11.2,0-21.4,7.1-25.3,17.6L81.6,232.1c-2.5,6.8-2.3,14.1,0.7,20.7s8.4,11.6,15.2,14.1l131.4,49c3.1,1.1,6.2,1.7,9.4,1.7
						c11.2,0,21.4-7.1,25.3-17.6l72.7-195.1c2.5-6.8,2.3-14.1-0.7-20.7c-3-6.6-8.4-11.6-15.2-14.1l-131.3-49
						C186,20,182.9,19.4,179.7,19.4z"/>
				</g>
			</g>
			<g>
				<g>
					<path class="st1" d="M257.4,195L257.4,195c0,0-17.6-36.5-23.4-69c-1.3-7.5-10.3-10.9-16.3-6.1c-25.6,20.8-62.8,36.8-62.8,36.8
						l0,0c-12.9,5.3-22.4,18.8-19.9,36.8c0.7,5,2.9,9.8,6.3,13.6c14.4,16.2,35.3,15.3,47.9,3.9c-4.5,9.3-13.1,24.4-25.1,33.5
						c-3.7,2.8-2.9,8.5,1.4,10.1l9.9,3.7l9.9,3.7c4.3,1.6,8.6-2.2,7.7-6.7c-3.1-14.7,0.3-31.7,3-41.7c2,16.8,17.2,31.2,38.7,28.4
						c5-0.7,9.8-2.8,13.6-6.2C262,223.9,263.7,207.5,257.4,195z"/>
				</g>
			</g>
			<g>
				<g>
					<path class="st1" d="M189.3,98.2l3.2-8.7l3.5,1.3l-0.2-16.9l-14.2-5.3l-11,12.8l3.5,1.3l-3.2,8.7l-16.3-6.1l3.2-8.7l3.5,1.4
						l11-12.8l-3.7-1.4l7.1-7.3l3.1,1.1l18.4-21.3l7.5,2.8l0.3,28.3l3,1.2l0.7,10.1l-3.5-1.3l0.2,16.9l3.5,1.3l-3.2,8.7L189.3,98.2z
						 M195.6,64l-0.1-11.5l-7.5,8.7L195.6,64z"/>
				</g>
			</g>
			<g>
				<g>
					<path class="st1" d="M204.6,93.6c-0.1-6.6-0.8-11.6-0.8-18.2l0.4,0.2l2.3-6.1l-2.8-1.1l-0.3-28.3l-5.7-2.1l-18.4,21.3l-2.9-1.1
						l-2.3,6.1l0.6,0.3c-4.3,5-8,8.4-12.3,13.4c2.2,0.8,4.4,1.7,6.6,2.5c4.3-5,8-8.4,12.3-13.4l16,5.9c0.1,6.6,0.8,11.6,0.8,18.2
						C200.2,92,202.4,92.8,204.6,93.6z M185.7,61.7l11.2-13l0.2,17.2L185.7,61.7z"/>
				</g>
			</g>
		</g>
	</g>
	<g>
		<g>
			<g>
				<path class="st0" d="M701.4,258.1l-12.7-13.3l12-10.2h11.8v-21.4l47.1-0.1l-0.1-34.8h-11.2l-12.7-13.3l12-10.2h11.8l-0.1-34.8
					l-91.4,0.3v12.7l-9.5-6.9c-5.4-3.9-11.8-6-18.5-6h-36.1c-16.7,0-30.3,12.8-30.3,28.4v7.2l-11.4,2.3l-14.7-35.4h-30.9l-18.5,43.4
					h-46.4v-43h-57.3v5.9l-8.2-3.4c-4.2-1.6-8.8-2.6-14-2.6h-18.5h-6h-43.1v35.6h8.7v19h-8.7v35.9H374c4.5,0,8.8-0.5,12.7-1.6
					l6.4-1.9v22.3h-41.6v35.1h6l1.5,3.8c4.9,12.5,16.7,20.5,30.1,20.5h21.6c5.7,0,11.4-1.5,16.3-4.5l9-5.3V292h105.4v-4.1l8.2,3.1
					c3.7,1.5,7.6,2.2,11.7,2.2h36.1c5.3,0,10.6-1.4,15.2-3.8l8.8-4.8v8.7l91.4-0.3l-0.1-34.8L701.4,258.1z M451.9,224.1v-10.6h15.9
					l-4.5,10.6H451.9z M530.7,235h-12.2l-9.1-21.5h25.9c-2.9,4.4-4.5,9.4-4.5,14.8V235z M586,253.4h-13.7v-13.7H586V253.4z"/>
			</g>
		</g>
		<g>
			<g>
				<path class="st1" d="M759.3,120.2l0.1,34.8h-11.8l-12,10.2l12.7,13.3h11.2l0.1,34.8l-47.1,0.1v21.4h-11.8l-12,10.2l12.7,13.3
					h11.2l0.1,34.8l-91.4,0.3v-8.7l-8.8,4.8c-4.6,2.6-9.9,3.8-15.2,3.8h-36.1c-3.9,0-7.9-0.7-11.7-2.2l-8.2-3.1v4.1H435.8v-10.2
					l-9,5.3c-5,3-10.6,4.5-16.3,4.5h-21.6c-13.3,0-25.2-8-30.1-20.5l-1.5-3.8h-6v-35.1h41.6V210l-6.4,1.9c-3.8,1.1-8.2,1.6-12.7,1.6
					h-69.4v-35.6h8.7v-19h-8.7v-35.6h43h6h18.5c5.2,0,9.8,0.8,14,2.6l8.2,3.4v-5.9h57.3v43h46.4l18.5-43.4h30.9l14.7,35.4l11.4-2.3
					v-7.2c0-15.6,13.6-28.4,30.3-28.4h36.1c6.8,0,13.2,2,18.5,6l9.5,6.9v-12.7L759.3,120.2 M518.5,235h12.2v-6.8
					c0-5.4,1.6-10.5,4.5-14.8h-25.9L518.5,235 M451.9,224.1h11.4l4.5-10.6h-15.9V224.1 M572.2,253.4H586v-13.7h-13.7V253.4
					 M759.3,96.7L759.3,96.7L667.9,97c-3.8,0-7.5,1-10.6,2.6c-5.6-1.8-11.4-2.7-17.3-2.7h-36.1c-14.2,0-26.9,5.2-36.5,13.7
					c-4.2-6.9-11.8-11.4-20.1-11.4h-30.9c-9.4,0-18,5.6-21.6,14.3l-12.4,29.1h-7.5v-19.5c0-12.9-10.5-23.4-23.4-23.4h-57.3
					c-3,0-5.7,0.5-8.3,1.5c-4.5-1-9.1-1.5-14-1.5h-18.5h-5.9h-43.1c-12.9,0-23.4,10.5-23.4,23.4v35.6c0,3.4,0.7,6.7,2,9.5
					c-1.4,2.9-2,6.1-2,9.5v35.5c0,12.9,10.5,23.4,23.4,23.4H328v30.5c0,9.4,5.6,17.6,13.5,21.2c10.1,16.3,27.8,26.5,47.5,26.5h21.6
					c5,0,9.9-0.7,14.8-2c3.1,1.6,6.8,2.4,10.6,2.4h105.4c1.9,0,3.7-0.3,5.4-0.7c4.6,1.2,9.4,1.9,14.3,1.9h36.1
					c4.9,0,9.8-0.7,14.6-1.9c3,1.4,6.1,2,9.4,2l0,0l91.4-0.3c6.3,0,12.1-2.4,16.6-6.9c4.4-4.4,6.8-10.3,6.8-16.6l-0.1-34.8
					c0-4.2-1.2-8.3-3.1-11.7c1.6-2.9,2.7-6.1,3-9.5h23.8c6.3,0,12.1-2.4,16.6-6.9c4.4-4.4,6.8-10.3,6.8-16.6l-0.1-34.8
					c0-4.1-1.1-8.2-3.1-11.7c2-3.4,3.1-7.5,3.1-11.7l-0.1-34.8c0-6.3-2.4-12.1-6.9-16.6C771.4,99.2,765.4,96.7,759.3,96.7
					L759.3,96.7z"/>
			</g>
		</g>
		<g>
			<g>
				<path class="st2" d="M383.4,166c2.3-1.4,4.1-3.1,5.3-5c1.4-2.3,2-5.2,2-8.7c0-11.6-6.3-17.3-18.6-17.3h-36.5l0,0h-19v11.7h8.7
					v43h-8.7v11.7h8.7h10.3H374c8.4,0,14.6-2.3,18.6-6.8c2.9-3.1,4.2-7.2,4.2-12.1c0-3.8-0.8-7.2-2.6-10.1
					C392.2,169.3,388.7,167.2,383.4,166z M342.4,148h24.2c1.6,0,2.9,0.1,3.8,0.5c2.7,1,4.1,3,4.1,6c0,1.8-0.5,3.1-1.5,4.4
					c-1.4,1.5-3.4,2.2-6.4,2.2h-24.2C342.4,161.1,342.4,148,342.4,148z M376.6,186.7c-1.8,1.1-4.8,1.5-9.3,1.5h-24.9v-14H367
					c3.1,0,5.3,0.1,6.5,0.3c3.9,0.7,6,3,6,6.8C379.6,183.7,378.6,185.6,376.6,186.7z"/>
			</g>
		</g>
		<g>
			<g>
				<polygon class="st2" points="463.4,178 463.4,189.7 431.8,189.7 431.8,146.7 439.6,146.7 439.6,135 406.2,135 406.2,146.7 
					414.5,146.7 414.5,189.7 406.2,189.7 406.2,189.8 406.2,201.5 414.5,201.5 431.8,201.5 439.6,201.5 476,201.5 476,197.7 
					476,189.7 476,178 				"/>
			</g>
		</g>
		<g>
			<g>
				<path class="st2" d="M539.3,134.6h-15.1l-23.7,55.8h-9.7v2.2v9h4.9H513h8.8h4.1v-11.2h-7.6l2.2-4.5h23.1l1.8,4.5h-7.9v11.2h3.1
					h9.1h17.6h4.4h1v-11.2h-9.9L539.3,134.6z M523.5,176.6l8-21.4l8,21.4H523.5z"/>
			</g>
		</g>
		<g>
			<g>
				<path class="st2" d="M639.9,132.1h-36.1c-10.2,0-18.4,7.3-18.4,16.5v36.6c0,9.1,8.3,16.5,18.4,16.5h36.1
					c10.2,0,18.4-7.3,18.4-16.5v-8h-17.6v8c0,0.3-0.3,0.5-0.8,0.5h-36.1c-0.5,0-0.8-0.3-0.8-0.5v-36.6c0-0.3,0.3-0.5,0.8-0.5h36.1
					c0.5,0,0.8,0.3,0.8,0.5v8.4h17.6v-8.4C658.2,139.5,650.1,132.1,639.9,132.1z"/>
			</g>
		</g>
		<g>
			<g>
				<polygon class="st2" points="743.1,190.4 743.1,190.4 718.2,164.2 743.1,143.1 747.3,143.1 747.3,139.5 747.6,139.3 
					747.3,139.3 747.3,132.1 718.5,132.3 718.6,143.1 722.7,143.1 701.1,161.5 701.1,143.3 708.7,143.1 708.7,132.3 679.9,132.3 
					679.9,143.3 684.8,143.3 684.8,190.6 680,190.6 680,201.5 708.8,201.5 708.8,190.5 701.1,190.5 701.1,178.8 707.3,173.5 
					723,190.5 718.6,190.5 718.8,201.5 747.6,201.4 747.5,190.4 				"/>
			</g>
		</g>
		<g>
			<g>
				<g>
					<path class="st2" d="M496.2,213.1h-15.1l-23.7,55.8h-9.7v2.2v9h4.9H470h8.8h4.1v-11.2h-7.6l2.2-4.5h23.1l1.8,4.5h-7.9V280h3.1
						h9.1h17.6h4.4h1v-11.2h-9.9L496.2,213.1z M480.5,255.1l8-21.4l8,21.4H480.5z"/>
				</g>
			</g>
			<g>
				<g>
					<path class="st2" d="M597.1,211.9h-36.1c-10.2,0-18.4,7.3-18.4,16.5v36.6c0,9.1,8.3,16.5,18.4,16.5h36.1
						c10.2,0,18.4-7.3,18.4-16.5v-8h-17.6v8c0,0.3-0.3,0.5-0.8,0.5h-36.1c-0.5,0-0.8-0.3-0.8-0.5v-36.6c0-0.3,0.3-0.5,0.8-0.5h36.1
						c0.5,0,0.8,0.3,0.8,0.5v8.4h17.6v-8.4C615.5,219.2,607.3,211.9,597.1,211.9z"/>
				</g>
			</g>
			<g>
				<g>
					<polygon class="st2" points="696.2,270.1 696.3,270.1 671.3,244 696.2,222.9 700.5,222.7 700.5,219.2 700.7,219.1 700.5,219.1 
						700.4,211.9 671.6,211.9 671.7,222.9 675.8,222.9 654.1,241.2 654.1,222.9 661.8,222.9 661.8,212 632.9,212 632.9,223 
						637.8,223 637.8,270.2 633.1,270.2 633.1,281.3 661.9,281.1 661.9,270.2 654.1,270.2 654.1,258.5 660.4,253.2 676,270.2 
						671.8,270.2 671.8,281.1 700.7,281.1 700.5,270.1 					"/>
				</g>
			</g>
			<g>
				<g>
					<g>
						<rect x="405" y="213.5" class="st2" width="35.1" height="11.2"/>
					</g>
				</g>
				<g>
					<g>
						<rect x="363.4" y="244.1" class="st2" width="27.2" height="11.2"/>
					</g>
				</g>
				<g>
					<g>
						<path class="st2" d="M410.4,279.6h-21.6c-11.3,0-20.4-9.1-20.4-20.4v-7.1h16.9v7.1c0,2,1.6,3.5,3.5,3.5h21.6
							c2,0,3.5-1.6,3.5-3.5v-42h16.9v42C431,270.4,421.7,279.6,410.4,279.6z"/>
					</g>
				</g>
			</g>
		</g>
	</g>
</g>
</svg>
