<?xml version="1.0" encoding="utf-8"?>
<!-- Generator: Adobe Illustrator 26.0.0, SVG Export Plug-In . SVG Version: 6.00 Build 0)  -->
<svg version="1.1" id="Layer_1" xmlns="http://www.w3.org/2000/svg" xmlns:xlink="http://www.w3.org/1999/xlink" x="0px" y="0px"
	 viewBox="0 0 190 416" style="enable-background:new 0 0 190 416;" xml:space="preserve">
<style type="text/css">
	.st0{fill:#F0F8FF;}
</style>
<path class="st0" d="M185,300c-1.09,3.43-5.07,15.18-15,27c-16.55,19.69-38.21,25.98-47,28c-6.05,1.27-13.04,2.39-20.76,3H103l-3,57
	H78c0.67-18.93,1.33-37.86,1.99-56.79C71.45,357.67,62.4,356.37,53,354c-14.46-3.66-22.7-5.08-28.94-10.13
	c0.31,4.38,0.63,8.75,0.94,13.13H1c1.67-30,3.33-60,5-90h15c0.35,3.7,0.95,8.87,2,15c1.74,10.16,2.61,15.24,5,21
	c4.4,10.59,11.12,17.34,14,20c7.65,7.05,15.19,10.11,20,12c2.47,0.97,14.87,5.7,32,5c7.57-0.31,18.21-0.74,30-7
	c4.46-2.37,14.07-7.62,21-19c6.09-10,6.87-19.51,7.23-24.42c0.31-4.33,0.77-11.76-2.23-20.58c-2.8-8.23-7.15-13.42-11-18
	c-3.45-4.11-8.94-9.76-17-15c-2.66-1.93-6.77-4.8-12-8c-5.52-3.38-10.66-6.14-16-9c-6.89-3.69-11.13-5.79-13.27-7.4
	c-3.86-2.1-7.77-4.31-11.73-6.6c-5.17-3-10.17-6-15-9c0.02,0,0.04-0.01,0.06-0.01c-4.55-2.81-8.3-5.88-12.06-8.99
	c-9.58-7.92-22.15-18.32-28-36c-3.06-9.25-2.96-18.04-3-23c-0.03-3.66-0.04-11.5,2-20c4.23-17.61,15.11-29.02,19-33
	c21.43-21.94,50.03-24.15,62.04-24.97L96,1h24c-0.96,16.6-1.92,33.21-2.87,49.81c5.21,0.74,8.98,1.69,10.87,2.19
	c8.02,2.13,22.2,5.9,33,16V50h22c-1.67,30.67-3.33,61.33-5,92h-17c0-4.17-0.18-10.01-1-17c-0.23-1.97-0.5-4.19-1-7
	c-0.77-4.26-2.31-11.74-6-20c-3.73-8.34-8.73-13.69-10-15c-7.22-7.5-15.41-11.17-21-13c-12.87-3.27-23.45-2.8-30-2
	c-6.09,0.75-13.08,1.67-21,6c-8.13,4.44-13.23,10.28-16,14c-2.73,3.85-7.59,11.8-9,23c-1.1,8.71,0.37,15.49,1,18
	c3.08,12.33,10.34,20.09,16,26c5.23,5.46,9.85,8.65,19.09,15.02C90.7,175.96,97.91,180.05,112,188c6.32,3.57,11.57,6.44,15.13,8.36
	c1.69,1.03,3.63,2.23,5.87,3.64c15.1,9.49,22.65,14.24,28,19c6.94,6.17,14.3,12.72,20,24c5.24,10.37,6.44,19.46,7,24
	C189.91,282.53,186.66,294.75,185,300z"/>
</svg>
