<?xml version="1.0" encoding="utf-8"?>
<!-- Generator: Adobe Illustrator 26.0.0, SVG Export Plug-In . SVG Version: 6.00 Build 0)  -->
<svg version="1.1" id="Layer_1" xmlns="http://www.w3.org/2000/svg" xmlns:xlink="http://www.w3.org/1999/xlink" x="0px" y="0px"
	 viewBox="0 0 298 340" style="enable-background:new 0 0 298 340;" xml:space="preserve">
<style type="text/css">
	.st0{fill:#F0F8FF;}
</style>
<path class="st0" d="M256,1v238c0,3.77-0.07,11.03-1.29,14.73v0.01c-0.64,3.3-2.58,10.81-7.71,18.26
	c-8.48,12.31-28.13,24.99-51.5,25c-8.07,0-26.31,0.01-39.5-14c-12.12-12.88-12.14-29.28-12-33.5c0.44-13.27,6.32-22.72,9-26.5
	c14.32-20.18,38.9-21.74,43-22c13.71-0.87,25.67,3.41,30,5c3.54,1.3,5.62,2.07,8,3.41V62L114,98
	c-0.32,62.48-0.65,124.96-0.97,187.44c-0.01,2.18-0.02,4.35-0.03,6.53c0.01,0.02,0,0.04,0,0.06c-1.92,20.69-20.28,34-23,35.97
	c-13.52,9.8-27.9,10.57-36,11c-5.74,0.31-15.7,0.73-27-4c-2.98-1.25-7.51-3.14-12-7C0.01,315.12,0.86,293.61,1,291
	c0.96-17.8,11.42-29.31,14-32c13.66-14.24,31.19-15.46,39-16c7.2-0.5,23.03-1.52,38,9c0.26,0.18,0.6,0.42,1,0.72V52
	C147.33,35,201.67,18,256,1z"/>
<path class="st0" d="M297.56,121.98c-13.49,3.73-26.98,7.46-40.47,11.18c-67.52,18.66-135.04,37.31-202.56,55.97
	c-1.93-7-3.87-14-5.8-21c69.27-19.14,138.55-38.28,207.82-57.42c11.74-3.24,23.48-6.49,35.22-9.73
	C293.69,107.98,295.63,114.98,297.56,121.98z"/>
</svg>
