<?xml version="1.0" encoding="utf-8"?>
<!-- Generator: Adobe Illustrator 26.0.0, SVG Export Plug-In . SVG Version: 6.00 Build 0)  -->
<svg version="1.1" id="Layer_1" xmlns="http://www.w3.org/2000/svg" xmlns:xlink="http://www.w3.org/1999/xlink" x="0px" y="0px"
	 viewBox="0 0 169 310" style="enable-background:new 0 0 169 310;" xml:space="preserve">
<style type="text/css">
	.st0{fill:#F0F8FF;}
</style>
<path class="st0" d="M94,276c0.31,1.33,3.09,14.01-5,24c-3.72,4.59-8.12,6.61-9,7c-1,0.44-4.16,1.76-8.5,2
	c-1.92,0.11-4.97,0.25-8.5-1c-5.69-2.01-8.77-6.26-10-8c-0.67-0.95-3.12-4.58-4-10c-0.2-1.24-0.9-6.12,1-12c0.39-1.22,1.73-5.04,5-9
	c2.43-2.94,7.64-9.25,16.5-10c7.17-0.61,14.29,2.64,18.5,8C92.63,270.35,93.45,273.67,94,276z"/>
<path class="st0" d="M167,82c-0.44,2.11-1.31,5.72-3,10c-0.5,1.27-2.63,6.56-7,13c-2.86,4.23-5.25,6.83-10,12
	c-2.2,2.4-5.85,6.36-11,11c-1.3,1.17-2.54,2.25-4.96,4.28c-4.22,3.54-9.82,8.23-17.04,13.72c-10.37,7.89-10.56,7.26-18,13
	c-1.61,1.24-25.62,19.99-25.69,31.84C70.3,193.02,71,195,71,195c1.93,5.49,7.24,7.7,8,8c2.25,0.89,4.25,0.96,7,1
	c3.37,0.05,5.89-0.41,9-1c2.03-0.39,4.78-1,8-2c1.33,5,2.67,10,4,15c-1.45,0.84-3.48,1.93-6,3c-1.5,0.63-7.09,2.91-16,4
	c-6.49,0.79-11.47,1.41-18,0c-7.4-1.6-12.33-4.84-14-6c-2.5-1.74-5.55-3.95-8-8c-4.31-7.12-3.36-14.51-3-17
	c0.66-4.62,2.23-7.85,4-11c3.4-6.05,7.58-10.84,13-16c5.99-5.7,7-5.66,17-14c3.8-3.17,8.2-7.12,17-15c8.6-7.7,12.94-11.6,15-14
	c5-5.81,8.44-11.31,12-17c3.43-5.49,4.5-7.83,5-9c2.49-5.77,3.44-10.9,4-14c0.23-1.26,0.72-4.17,1-8c0.89-12.04-1.11-21.36-2-25
	c-1.45-5.91-3-9.15-4-11c-1.65-3.07-3.32-5.17-4-6c0,0-2.23-2.71-5-5c-5.36-4.42-14.78-7.87-24-9c-4.36-0.53-12.26-1.41-22,1
	c-6.03,1.5-10.31,3.63-13,5c-3.49,1.77-7.62,3.91-12,8c-3.46,3.23-5.45,6.16-6,7c-2.01,3.03-3.24,5.86-4,8
	c6.16,5.98,8.08,15.12,6,22c-0.96,3.17-2.69,5.57-3,6c-2.69,3.68-5.92,5.45-7,6c-4.95,2.51-9.5,2.14-11,2c-1.34-0.13-4.01-0.41-7-2
	c-0.47-0.25-2.73-1.48-5-4c-3.55-3.94-4.59-8.23-5-10c-0.43-1.85-1.38-6.19,0-11c1.57-8.23,4.71-13.74,7-17c1.7-2.43,3.3-4.15,6-7
	c2.46-2.59,6.26-6.56,12-11c5.36-4.14,10.3-7.05,14-9c6.84-3.6,12.4-5.48,14-6c1.39-0.46,5.63-1.81,12-3c2.92-0.55,12.68-2.26,26-2
	c8.31,0.16,16.07,0.35,26,3c4.68,1.25,20.73,5.69,32,17c4.53,4.54,7.84,9.75,8,10c1.4,2.23,3.32,5.62,5,10c0.43,1.13,1.97,5.26,3,11
	c0.7,3.93,0.85,6.87,1,10C168.31,68.49,168.58,74.41,167,82z"/>
</svg>
