<?xml version="1.0" encoding="utf-8"?>
<!-- Generator: Adobe Illustrator 26.0.0, SVG Export Plug-In . SVG Version: 6.00 Build 0)  -->
<svg version="1.1" id="Layer_1" xmlns="http://www.w3.org/2000/svg" xmlns:xlink="http://www.w3.org/1999/xlink" x="0px" y="0px"
	 viewBox="0 0 394 468" style="enable-background:new 0 0 394 468;" xml:space="preserve">
<style type="text/css">
	.st0{fill:#f0f8ff;}
</style>
<g id="Layer_1">
	<g>
		<g>
			<path class="st0" d="M17,467c-8.5,0-15.52-6.44-15.98-14.67C1,452.06,1,451.79,1,451.5v-69.42c-0.22-8.2,0.12-16.52,1.04-24.74
				c0.92-8.32,2.83-25.64,11.45-45.71c3.53-8.22,8-16.4,12.57-23.04c6.67-9.63,13.08-15.9,16.91-19.65
				c5.88-5.76,18.13-17.73,37.35-27.31c12.47-6.22,23.04-9.06,28.12-10.42c6.35-1.7,15.69-3.82,21.15-4.19l0.2-0.01h129.36
				c1.19-0.12,2.37-0.18,3.53-0.18c0.74,0,1.48,0.02,2.21,0.07c5.46,0.37,14.81,2.49,21.15,4.19c5.07,1.36,15.63,4.2,28.12,10.42
				c19.18,9.56,31.45,21.55,37.35,27.31c3.86,3.77,10.32,10.08,16.92,19.66c7.12,10.33,11.15,19.66,13.09,24.15
				c2.62,6.06,4.47,11.41,5.16,13.42c1.55,4.5,2.94,9.01,4.12,13.4l0.05,0.2l0.04,0.21c1.25,6.41,1.96,12.8,2.11,19.01
				c0.03,1.43,0.03,2.45,0.01,4.9l-0.01,2.43c-0.02,4.6-0.02,8.59-0.01,11.79c0,1.51,0,2.84,0.01,3.97V455h-0.41
				c-1.64,6.87-8.01,12-15.59,12H17z M361,435v-54c-0.06-10.79-0.72-20.97-1.95-30.21c-0.54-4.11-1.08-7.11-1.88-10.36
				c-0.53-2.17-2.16-8.08-5.66-16c-8.11-18.34-19.92-30.63-24.63-35.06c-15.76-14.85-32.73-20.83-40.88-23.71
				c-7.2-2.54-14.67-4.44-22.23-5.66H131.19c-8.3,0.54-16.48,2.12-24.32,4.7c-20.48,6.74-33.32,18.63-38.8,23.7
				c-5.33,4.94-18.49,18.23-25.55,34.94c-2.81,6.66-5.1,14.86-5.73,17.22c-0.9,3.35-2.03,7.99-2.84,14.22
				c-0.68,5.25-0.8,9.23-0.95,14.27l0,0.13c-0.12,3.96-0.13,7.88-0.03,11.67L33,382v53h40v-66.5c0-0.29,0-0.56,0.02-0.84
				C73.48,359.44,80.5,353,89,353s15.52,6.44,15.98,14.67c0.02,0.28,0.02,0.55,0.02,0.83V435h184v-9.71l6.5,0.54
				c2.95,0.25,6.13,0.36,9.71,0.36c3.44,0,6.92-0.11,9.57-0.21l6.22-0.23V435H361z"/>
		</g>
		<g>
			<path class="st0" d="M196.5,210C138.88,210,92,163.12,92,105.5S138.88,1,196.5,1C254.12,1,301,47.88,301,105.5
				S254.12,210,196.5,210z M197.5,31c-41.08,0-74.5,33.42-74.5,74.5s33.42,74.5,74.5,74.5c41.08,0,74.5-33.42,74.5-74.5
				S238.58,31,197.5,31z"/>
		</g>
		<g>
			<rect x="289" y="369" class="st0" width="32" height="69"/>
		</g>
		<g>
			<ellipse class="st0" cx="305" cy="368.5" rx="16" ry="15.5"/>
		</g>
	</g>
</g>
</svg>
